<?xml version="1.0" encoding="UTF-8" standalone="no"?>
<svg
   xmlns:dc="http://purl.org/dc/elements/1.1/"
   xmlns:cc="http://creativecommons.org/ns#"
   xmlns:rdf="http://www.w3.org/1999/02/22-rdf-syntax-ns#"
   xmlns:svg="http://www.w3.org/2000/svg"
   xmlns="http://www.w3.org/2000/svg"
   height="1024"
   width="1024"
   xml:space="preserve"
   viewBox="0 0 1024 1024"
   y="0px"
   x="0px"
   id="Calque_1"
   version="1.1"><metadata
   id="metadata4039"><rdf:RDF><cc:Work
       rdf:about=""><dc:format>image/svg+xml</dc:format><dc:type
         rdf:resource="http://purl.org/dc/dcmitype/StillImage" /><dc:title></dc:title></cc:Work></rdf:RDF></metadata><defs
   id="defs4037"><clipPath
     id="clipPath14293"
     clipPathUnits="userSpaceOnUse"><path
       id="path14295"
       d="m -639.78427,66.17333 c -10.003,-0.0693 -9.8361,4.5745 -24.7757,0.64138 -17.1963,-4.52535 -13.4686,32.14841 24.9471,32.51272 34.1836,-0.191 41.8008,-37.03807 24.6044,-32.51272 -14.9458,3.93312 -13.5521,-0.64227 -24.7758,-0.64138 z"
       style="fill:#000000;stroke:none;stroke-width:1.71932554px;stroke-linecap:butt;stroke-linejoin:miter;stroke-opacity:1" /></clipPath></defs>
<style
   id="style3896"
   type="text/css">
	.st0{fill:#1A1A1A;}
	.st1{fill:#46B3AF;}
	.st2{fill:#4C87C2;}
	.st3{fill:#89A667;}
	.st4{fill:#90952B;}
	.st5{fill:#3D3611;}
	.st6{fill:#A3936E;}
	.st7{fill:#693C6B;}
	.st8{fill:#7C5E82;}
	.st9{fill:#421653;}
	.st10{fill:#E6E6E6;}
	.st11{fill:#EDD1D1;}
	.st12{fill:#B1956B;}
	.st13{fill:#F2F2F2;}
	.st14{fill:#FFFFFF;}
	.st15{fill:#E6A8A1;}
	.st16{fill:#F0A967;}
	.st17{fill:#36302B;}
	.st18{fill:#E3AAB7;}
	.st19{fill:#CF8495;}
	.st20{fill:#DF7087;}
	.st21{fill:#91AF27;}
</style>

<path
   style="fill:#e6a8a1;stroke-width:43.99065781"
   id="path4028"
   d="M 550.27348,996.4812 C 768.5539,895.79325 1008.2413,552.06656 1012.2698,303.83447 1017.7082,35.979692 717.39864,-121.69243 529.14154,247.42577 520.16459,262.55996 508.9434,281.47764 497.72223,300.39531 369.32677,-26.385085 124.17329,-18.358081 62.427868,154.72095 -69.910519,541.66366 340.26507,1091.8463 550.27348,996.4812 Z"
   class="st15" /><path
   style="fill:#b1956b;stroke-width:3.1921773"
   id="path3988"
   d="m -287.82807,881.09926 c -33.83708,1.27687 -73.42007,1.59609 -97.04219,-27.13352 -30.6449,-37.34847 -39.90221,-94.48843 -189.61534,-84.59268 -57.13998,4.46905 -91.9347,20.11072 -114.59916,75.9738 -19.15306,47.24423 -16.91854,106.93795 6.70357,152.26687 38.30612,73.10087 184.18863,107.89557 268.78133,30.00647 30.96412,-28.41038 47.88267,-73.7393 75.97383,-105.66108 22.66445,-24.89897 72.46242,-41.4983 49.79796,-40.85986 z"
   class="st12" /><g
   transform="matrix(2.319585,0,0,2.319585,1392.5448,-1956.0115)"
   id="g14333"><g
     id="g4032"
     transform="translate(663.73525,939.40712)">
	<g
   id="g3950">
		
		
		
		
		
		
		
		
		
		
	</g>
	
	<g
   id="g3990"
   transform="translate(125.23967,-126.89352)">
		
		
		
	</g>
	
	
	
	
<g
   style="fill:#4d4d4d"
   transform="matrix(2.4541402,0,0,2.4541402,-809.45085,-197.77115)"
   id="g3906"><g
     style="fill:#4d4d4d"
     id="g3900"><path
       style="fill:#4d4d4d"
       d="m 223.9,150.8 c -3.2,-1.5 -6.9,-0.7 -10.3,0.4 -7.9,2.6 -15.2,6.4 -22.5,10.3 -6.1,3.2 -12.2,6.4 -18.4,9.6 l 24.3,29.4 c 11.8,-7.2 21.8,-17.4 28.5,-29.5 1.8,-3.3 3.5,-6.9 3.5,-10.7 0.1,-3.8 -1.7,-7.8 -5.1,-9.5 z"
       id="path3898" /></g><g
     style="fill:#4d4d4d"
     id="g3904"><path
       style="fill:#4d4d4d"
       d="m 76.1,151.3 c -3.3,-1.1 -7.1,-1.9 -10.3,-0.4 -3.4,1.6 -5.2,5.7 -5.1,9.5 0.1,3.8 1.7,7.4 3.5,10.7 6.7,12.1 16.6,22.4 28.5,29.5 L 117,171.2 c -6.1,-3.2 -12.2,-6.4 -18.4,-9.6 -7.3,-3.9 -14.7,-7.7 -22.5,-10.3 z"
       id="path3902" /></g></g><path
   class="st13"
   d="m -453.84595,138.9369 c -98.65645,0 -134.24147,72.64256 -134.24147,162.21867 0,89.57612 35.58502,88.10363 134.24147,88.10363 98.65646,0 134.24149,1.22707 134.24149,-88.10363 0,-89.33069 -35.58503,-162.21867 -134.24149,-162.21867 z"
   id="path3908"
   style="fill:#f2f2f2;stroke-width:2.45414019" /><g
   style="fill:#4d4d4d"
   transform="matrix(2.4541402,0,0,2.4541402,-809.45085,-197.77115)"
   id="g3914"><path
     style="fill:#4d4d4d"
     d="m 83.1,77.9 c -8.7,8.7 -9.3,22.1 -1.5,30 7.8,7.9 19.7,5.6 28.4,-3.1 8.7,-8.7 11,-20.5 3.1,-28.4 -7.9,-7.9 -21.3,-7.2 -30,1.5 z"
     id="path3910" /><path
     style="fill:#4d4d4d"
     d="m 206.6,77.9 c -8.7,-8.7 -22.1,-9.3 -30,-1.5 -7.9,7.9 -5.6,19.7 3.1,28.4 8.7,8.7 20.5,11 28.4,3.1 7.9,-7.9 7.2,-21.3 -1.5,-30 z"
     id="path3912" /></g><path
   class="st13"
   d="M -453.84595,4.0238842 C -536.29985,3.0948993 -603.30309,56.77987 -603.30309,122.13749 c 0,65.35763 66.99801,104.65762 149.45714,104.65762 82.45913,0 149.45716,-39.51358 149.45716,-104.65762 0,-65.144033 -34.66466,-116.820271 -149.45716,-118.1136058 z"
   id="path3916"
   style="fill:#f2f2f2;stroke-width:2.28948116" /><g
   transform="matrix(2.4541402,0,0,2.4541402,-809.45085,-197.77115)"
   id="g3922"><path
     d="m 176.1,101.5 c -12.4,-0.8 -20.7,9.9 -21.5,23.6 -0.8,13.7 6,25.3 18.5,26 12.5,0.7 23.2,-9.8 24,-23.5 0.8,-13.6 -8.6,-25.3 -21,-26.1 z"
     id="path3918" /><path
     d="m 113.6,101.5 c -12.4,0.8 -21.9,12.5 -21,26.2 0.8,13.7 11.6,24.2 24,23.5 12.4,-0.7 19.3,-12.3 18.5,-26 -0.8,-13.8 -9,-24.4 -21.5,-23.7 z"
     id="path3920" /></g><g
   style="fill:#4d4d4d"
   transform="matrix(2.4541402,0,0,2.4541402,-809.45085,-197.77115)"
   id="g3928"><path
     style="fill:#4d4d4d"
     d="m 116.4,205.4 c -11.8,-5.7 -25.5,-1.7 -30.7,9 -5.2,10.7 1.2,21.8 13,27.5 11.8,5.7 24.5,3.9 29.7,-6.8 5.1,-10.7 -0.2,-24 -12,-29.7 z"
     id="path3924" /><path
     style="fill:#4d4d4d"
     d="m 204,214.4 c -5.2,-10.7 -19,-14.7 -30.7,-9 -11.8,5.7 -17.1,19 -11.9,29.7 5.2,10.7 17.9,12.5 29.7,6.8 11.7,-5.7 18.1,-16.8 12.9,-27.5 z"
     id="path3926" /></g><path
   class="st10"
   d="m -453.84595,226.5497 c -42.70205,0 -80.98664,-12.02527 -108.22759,-34.11254 -0.73624,1.22708 -1.47249,2.45414 -2.20873,3.68122 27.24096,23.0689 66.75262,35.83043 110.43632,35.83043 43.68372,0 83.19537,-12.76153 110.43632,-35.83043 -0.73624,-1.22708 -1.47248,-2.45414 -2.20871,-3.68122 -27.24097,22.08727 -65.77097,34.11254 -108.22761,34.11254 z"
   id="path3930"
   style="fill:#e6e6e6;stroke-width:2.45414019" /><g
   transform="matrix(4.0946832,0,0,4.0946832,-996.98609,-405.9606)"
   id="g3936"><path
     class="st14"
     d="m 118.3,121 c -3,-1.9 -7.1,-0.8 -9.2,2.5 -2.1,3.3 -1.4,7.5 1.6,9.4 3,1.9 6.5,0.4 8.6,-2.9 2.1,-3.2 2,-7 -1,-9 z"
     id="path3932"
     style="fill:#ffffff" /><path
     d="m 116.1,124.3 c -1.3,-0.9 -3.2,-0.4 -4.1,1.1 -0.9,1.5 -0.6,3.3 0.7,4.2 1.3,0.9 2.9,0.2 3.8,-1.3 1,-1.4 0.9,-3.1 -0.4,-4 z"
     id="path3934" /></g><g
   transform="matrix(2.4541402,0,0,2.4541402,-809.45085,-197.77115)"
   id="g3942"><path
     class="st10"
     d="m 144.9,127 c -13.7,0 -24.8,10.1 -24.8,22.5 0,12.4 11.1,20 24.8,20 13.7,0 24.8,-7.5 24.8,-20 0,-12.4 -11.1,-22.5 -24.8,-22.5 z"
     id="path3938"
     style="fill:#e6e6e6" /><path
     d="m 152.4,138.6 c 0,-3.8 -3.4,-3.9 -7.6,-3.9 -4.2,0 -7.6,0.1 -7.6,3.9 0,3.5 2.9,8.9 6.7,9.6 0,3.3 0,6.5 0,9.8 0,1.1 1.7,1.1 1.7,0 0,-3.3 0,-6.5 0,-9.8 3.9,-0.7 6.8,-6 6.8,-9.6 z"
     id="path3940" /></g><g
   transform="matrix(4.1338312,0,0,4.1338312,-1104.066,-410.92859)"
   id="g3948"><path
     class="st14"
     d="m 180.6,123.5 c -2.1,-3.3 -6.2,-4.4 -9.2,-2.5 -3,1.9 -3.1,5.7 -0.9,9 2.2,3.3 5.6,4.8 8.6,2.9 2.9,-1.9 3.6,-6.1 1.5,-9.4 z"
     id="path3944"
     style="fill:#ffffff" /><path
     d="m 177.7,125.4 c -0.9,-1.5 -2.8,-2 -4.1,-1.1 -1.3,0.9 -1.4,2.6 -0.4,4 0.9,1.5 2.5,2.1 3.8,1.3 1.3,-0.9 1.6,-2.7 0.7,-4.2 z"
     id="path3946" /></g></g><g
     id="g14299"
     transform="translate(983.83783,1022.3378)"><path
       id="path4746"
       d="m -773.9828,94.29237 c -10.003,-0.0693 -9.8361,4.5745 -24.7757,0.64138 -17.1963,-4.52535 -13.4686,32.14841 24.9471,32.51272 34.1836,-0.191 41.8008,-37.03807 24.6044,-32.51272 -14.9458,3.93312 -13.5521,-0.64227 -24.7758,-0.64138 z"
       style="fill:#000000;stroke:none;stroke-width:1.71932554px;stroke-linecap:butt;stroke-linejoin:miter;stroke-opacity:1" /><path
       transform="translate(-134.19853,28.11904)"
       clip-path="url(#clipPath14293)"
       id="path13722"
       d="m -662,96 c 0,0 25.25,-12.75 45,-1.25 19.75,11.5 19.75,11.5 19.75,11.5 l -39.25,9.75 -48.75,-3 z"
       style="fill:#ff5555;stroke:none;stroke-width:1px;stroke-linecap:butt;stroke-linejoin:miter;stroke-opacity:1" /></g></g></svg>